REM DIRINDEX 1\2\5,1\2\6,1\2\7,1\2\8,1\3\9,1\3\10,1\3\11,1\4\12,1\4\13,1\4\14,1\4\15,1\4\16
REM DIRNAME cjc034,folder01,folder02,folder03,folder04,folder05,folder06,folder07,folder08,folder09,folder10,folder11,folder12,folder13,folder14,folder15
TITLE ""
FILE "1200_2_sec01_0161_0176.mp3" MP3
  TRACK 01 AUDIO
    TITLE "0:"
    INDEX 01 00:00:00
  TRACK 02 AUDIO
    TITLE "10:cjc034_00328"
    INDEX 01 00:00:15
  TRACK 03 AUDIO
    TITLE "0:"
    INDEX 01 00:02:22
  TRACK 04 AUDIO
    TITLE "9:cjc034_00329"
    INDEX 01 00:02:32
  TRACK 05 AUDIO
    TITLE "0:"
    INDEX 01 00:03:43
  TRACK 06 AUDIO
    TITLE "10:cjc034_00330"
    INDEX 01 00:04:29
  TRACK 07 AUDIO
    TITLE "0:"
    INDEX 01 00:06:43
  TRACK 08 AUDIO
    TITLE "9:cjc034_00331"
    INDEX 01 00:06:47
  TRACK 09 AUDIO
    TITLE "0:"
    INDEX 01 00:07:68
  TRACK 10 AUDIO
    TITLE "11:cjc034_00332"
    INDEX 01 00:09:36
  TRACK 11 AUDIO
    TITLE "0:"
    INDEX 01 00:11:13
  TRACK 12 AUDIO
    TITLE "10:cjc034_00333"
    INDEX 01 00:12:12
  TRACK 13 AUDIO
    TITLE "0:"
    INDEX 01 00:14:27
  TRACK 14 AUDIO
    TITLE "9:cjc034_00334"
    INDEX 01 00:14:31
  TRACK 15 AUDIO
    TITLE "0:"
    INDEX 01 00:15:50
  TRACK 16 AUDIO
    TITLE "10:cjc034_00335"
    INDEX 01 00:16:32
  TRACK 17 AUDIO
    TITLE "0:"
    INDEX 01 00:17:35
  TRACK 18 AUDIO
    TITLE "9:cjc034_00336"
    INDEX 01 00:17:43
  TRACK 19 AUDIO
    TITLE "0:"
    INDEX 01 00:18:54
  TRACK 20 AUDIO
    TITLE "10:cjc034_00337"
    INDEX 01 00:19:36
  TRACK 21 AUDIO
    TITLE "0:"
    INDEX 01 00:20:59
  TRACK 22 AUDIO
    TITLE "9:cjc034_00338"
    INDEX 01 00:20:71
  TRACK 23 AUDIO
    TITLE "0:"
    INDEX 01 00:22:05
  TRACK 24 AUDIO
    TITLE "10:cjc034_00339"
    INDEX 01 00:22:66
  TRACK 25 AUDIO
    TITLE "0:"
    INDEX 01 00:24:20
  TRACK 26 AUDIO
    TITLE "9:cjc034_00340"
    INDEX 01 00:24:29
  TRACK 27 AUDIO
    TITLE "0:"
    INDEX 01 00:25:48
  TRACK 28 AUDIO
    TITLE "10:cjc034_00341"
    INDEX 01 00:26:30
  TRACK 29 AUDIO
    TITLE "0:"
    INDEX 01 00:27:55
  TRACK 30 AUDIO
    TITLE "9:cjc034_00342"
    INDEX 01 00:27:69
  TRACK 31 AUDIO
    TITLE "0:"
    INDEX 01 00:29:07
  TRACK 32 AUDIO
    TITLE "10:cjc034_00343"
    INDEX 01 00:29:68
  TRACK 33 AUDIO
    TITLE "0:"
    INDEX 01 00:31:02
  TRACK 34 AUDIO
    TITLE "9:cjc034_00344"
    INDEX 01 00:31:08
  TRACK 35 AUDIO
    TITLE "0:"
    INDEX 01 00:32:19
  TRACK 36 AUDIO
    TITLE "10:cjc034_00345"
    INDEX 01 00:32:74
  TRACK 37 AUDIO
    TITLE "0:"
    INDEX 01 00:34:08
  TRACK 38 AUDIO
    TITLE "9:cjc034_00346"
    INDEX 01 00:34:12
  TRACK 39 AUDIO
    TITLE "0:"
    INDEX 01 00:35:17
  TRACK 40 AUDIO
    TITLE "10:cjc034_00347"
    INDEX 01 00:37:61
  TRACK 41 AUDIO
    TITLE "0:"
    INDEX 01 00:38:69
  TRACK 42 AUDIO
    TITLE "9:cjc034_00348"
    INDEX 01 00:39:00
  TRACK 43 AUDIO
    TITLE "0:"
    INDEX 01 00:40:05
  TRACK 44 AUDIO
    TITLE "10:cjc034_00349"
    INDEX 01 00:42:51
  TRACK 45 AUDIO
    TITLE "0:"
    INDEX 01 00:45:20
  TRACK 46 AUDIO
    TITLE "9:cjc034_00350"
    INDEX 01 00:45:26
  TRACK 47 AUDIO
    TITLE "0:"
    INDEX 01 00:46:37
  TRACK 48 AUDIO
    TITLE "10:cjc034_00351"
    INDEX 01 00:47:21
  TRACK 49 AUDIO
    TITLE "0:"
    INDEX 01 00:48:28
  TRACK 50 AUDIO
    TITLE "9:cjc034_00352"
    INDEX 01 00:48:40
  TRACK 51 AUDIO
    TITLE "0:"
    INDEX 01 00:49:47
  TRACK 52 AUDIO
    TITLE "10:cjc034_00353"
    INDEX 01 00:50:35
  TRACK 53 AUDIO
    TITLE "0:"
    INDEX 01 00:51:54
  TRACK 54 AUDIO
    TITLE "9:cjc034_00354"
    INDEX 01 00:51:69
  TRACK 55 AUDIO
    TITLE "0:"
    INDEX 01 00:52:61
  TRACK 56 AUDIO
    TITLE "10:cjc034_00355"
    INDEX 01 00:53:45
  TRACK 57 AUDIO
    TITLE "0:"
    INDEX 01 00:54:62
  TRACK 58 AUDIO
    TITLE "9:cjc034_00356"
    INDEX 01 00:54:66
  TRACK 59 AUDIO
    TITLE "0:"
    INDEX 01 00:55:59
  TRACK 60 AUDIO
    TITLE "10:cjc034_00357"
    INDEX 01 00:56:57
  TRACK 61 AUDIO
    TITLE "0:"
    INDEX 01 00:58:20
  TRACK 62 AUDIO
    TITLE "9:cjc034_00358"
    INDEX 01 00:58:28
  TRACK 63 AUDIO
    TITLE "0:"
    INDEX 01 00:59:28
  TRACK 64 AUDIO
    TITLE "10:cjc034_00359"
    INDEX 01 01:00:15
  TRACK 65 AUDIO
    TITLE "0:"
    INDEX 01 01:01:42
  TRACK 66 AUDIO
    TITLE "9:cjc034_00360"
    INDEX 01 01:01:48
  TRACK 67 AUDIO
    TITLE "0:"
    INDEX 01 01:03:04
